Control Set_states
version=1
nRows=34
nColumns=17
inDegrees=yes

# SIMM Motion File Header:
name Control Set_states
datacolumns 17
datarows 34
otherdata 1
range 0.64617001 0.90779924
endheader
time	/jointset/r_shoulder/r_shoulder_elev/value	/jointset/r_shoulder/r_shoulder_elev/speed	/jointset/r_elbow/r_elbow_flex/value	/jointset/r_elbow/r_elbow_flex/speed	/forceset/TRIlong/activation	/forceset/TRIlong/fiber_length	/forceset/TRIlat/activation	/forceset/TRIlat/fiber_length	/forceset/TRImed/activation	/forceset/TRImed/fiber_length	/forceset/BIClong/activation	/forceset/BIClong/fiber_length	/forceset/BICshort/activation	/forceset/BICshort/fiber_length	/forceset/BRA/activation	/forceset/BRA/fiber_length
      0.64617001	      0.68301147	     -1.94637107	     23.09853785	    -17.48958975	     -0.05775239	      0.14617731	     -0.05775239	      0.07966820	     -0.05775239	      0.07466242	     -0.05775238	      0.14239121	     -0.05775239	      0.14170816	     -0.05775239	      0.08788908
      0.65389614	      0.66311760	     -3.20270113	     22.96760684	    -16.39638610	     -0.05874713	      0.14611340	     -0.05874713	      0.07961326	     -0.05874713	      0.07460801	     -0.05874712	      0.14244534	     -0.05874713	      0.14176133	     -0.05874713	      0.08791998
      0.66432247	      0.62092536	     -4.88832585	     22.80460424	    -14.86037660	     -0.06008952	      0.14602339	     -0.06008952	      0.07954468	     -0.06008952	      0.07453953	     -0.06008951	      0.14251853	     -0.06008952	      0.14182957	     -0.06008952	      0.08795861
      0.67299884	      0.57248712	     -6.27387586	     22.68135276	    -13.54634193	     -0.06120661	      0.14594451	     -0.06120661	      0.07949261	     -0.06120661	      0.07448838	     -0.06120659	      0.14257931	     -0.06120661	      0.14188314	     -0.06120661	      0.08798799
      0.68167522	      0.51211325	     -7.63916688	     22.56960922	    -12.20902257	     -0.06232369	      0.14586394	     -0.06232369	      0.07944527	     -0.06232369	      0.07444079	     -0.06232367	      0.14263998	     -0.06232369	      0.14193374	     -0.06232369	      0.08801476
      0.69035160	      0.44000913	     -8.97652790	     22.46951754	    -10.86172588	     -0.06344077	      0.14577888	     -0.06344077	      0.07940266	     -0.06344077	      0.07439911	     -0.06344076	      0.14270037	     -0.06344077	      0.14198135	     -0.06344077	      0.08803890
      0.69783962	      0.36855085	    -10.10509598	     22.39253870	     -9.70005190	     -0.06440486	      0.14570559	     -0.06440486	      0.07936974	     -0.06440486	      0.07436607	     -0.06440484	      0.14275223	     -0.06440486	      0.14202003	     -0.06440486	      0.08805759
      0.70532764	      0.28874371	    -11.20605000	     22.32424165	     -8.54270054	     -0.06536894	      0.14562875	     -0.06536894	      0.07934039	     -0.06536894	      0.07433711	     -0.06536892	      0.14280379	     -0.06536894	      0.14205652	     -0.06536894	      0.08807430
      0.71281566	      0.20080618	    -12.27603512	     22.26456446	     -7.39953652	     -0.06633302	      0.14555142	     -0.06633302	      0.07931457	     -0.06633302	      0.07431150	     -0.06633300	      0.14285503	     -0.06633302	      0.14209084	     -0.06633302	      0.08808904
      0.72030368	      0.10498065	    -13.31249240	     22.21338736	     -6.27268172	     -0.06729710	      0.14547188	     -0.06729710	      0.07929225	     -0.06729710	      0.07428943	     -0.06729709	      0.14290591	     -0.06729710	      0.14212304	     -0.06729710	      0.08810183
      0.73007361	     -0.03147011	    -14.60930576	     22.15914862	     -4.83878036	     -0.06855498	      0.14536680	     -0.06855498	      0.07926829	     -0.06855498	      0.07426574	     -0.06855496	      0.14297173	     -0.06855498	      0.14216199	     -0.06855498	      0.08811563
      0.73763189	     -0.14553561	    -15.56677159	     22.12667035	     -3.75998567	     -0.06952811	      0.14528311	     -0.06952811	      0.07925367	     -0.06952811	      0.07425134	     -0.06952809	      0.14302217	     -0.06952811	      0.14218983	     -0.06952811	      0.08812412
      0.74519016	     -0.26667680	    -16.48110570	     22.10222011	     -2.71587713	     -0.07050124	      0.14519916	     -0.07050124	      0.07924237	     -0.07050124	      0.07424022	     -0.07050122	      0.14307218	     -0.07050124	      0.14221577	     -0.07050124	      0.08813075
      0.75274843	     -0.39456091	    -17.35077970	     22.08553043	     -1.70646309	     -0.07147437	      0.14511353	     -0.07147437	      0.07923429	     -0.07147437	      0.07423232	     -0.07147435	      0.14312174	     -0.07147437	      0.14223990	     -0.07147437	      0.08813558
      0.76289486	     -0.57623027	    -18.44415235	     22.07483678	     -0.41472588	     -0.07278072	      0.14499782	     -0.07278072	      0.07922830	     -0.07278072	      0.07422653	     -0.07278070	      0.14318754	     -0.07278072	      0.14226961	     -0.07278072	      0.08813934
      0.77030996	     -0.71578271	    -19.18802413	     22.07511683	      0.48375385	     -0.07373541	      0.14491139	     -0.07373541	      0.07922726	     -0.07373541	      0.07422562	     -0.07373539	      0.14323509	     -0.07373541	      0.14228952	     -0.07373541	      0.08814020
      0.77772506	     -0.86066785	    -19.88221708	     22.08188801	      1.33529835	     -0.07469011	      0.14482512	     -0.07469011	      0.07922843	     -0.07469011	      0.07422691	     -0.07469009	      0.14328216	     -0.07469011	      0.14230800	     -0.07469011	      0.08813933
      0.78514016	     -1.01050835	    -20.52376461	     22.09478704	      2.13462516	     -0.07564480	      0.14473777	     -0.07564480	      0.07923185	     -0.07564480	      0.07423051	     -0.07564478	      0.14332876	     -0.07564480	      0.14232518	     -0.07564480	      0.08813660
      0.79255526	     -1.16490922	    -21.11238490	     22.11341781	      2.88188581	     -0.07659950	      0.14465014	     -0.07659950	      0.07923768	     -0.07659950	      0.07423652	     -0.07659948	      0.14337488	     -0.07659950	      0.14234115	     -0.07659950	      0.08813280
      0.80170867	     -1.36120741	    -21.76435131	     22.14374529	      3.73068088	     -0.07777800	      0.14454117	     -0.07777800	      0.07924807	     -0.07777800	      0.07424712	     -0.07777798	      0.14343117	     -0.07777800	      0.14235939	     -0.07777800	      0.08812604
      0.80873631	     -1.51575433	    -22.21047348	     22.17210300	      4.33280909	     -0.07868281	      0.14445734	     -0.07868281	      0.07925828	     -0.07868281	      0.07425747	     -0.07868279	      0.14347389	     -0.07868281	      0.14237241	     -0.07868281	      0.08812000
      0.81576394	     -1.67326748	    -22.60835074	     22.20453718	      4.89051199	     -0.07958761	      0.14437318	     -0.07958761	      0.07927029	     -0.07958761	      0.07426960	     -0.07958759	      0.14351619	     -0.07958761	      0.14238467	     -0.07958761	      0.08811269
      0.82447931	     -1.87222599	    -23.03677311	     22.24997612	      5.52732899	     -0.08070972	      0.14426873	     -0.08070972	      0.07928749	     -0.08070972	      0.07428691	     -0.08070970	      0.14356802	     -0.08070972	      0.14239894	     -0.08070972	      0.08810264
      0.83226219	     -2.05280586	    -23.35786689	     22.29503727	      6.04385484	     -0.08171176	      0.14417542	     -0.08171176	      0.07930482	     -0.08171176	      0.07430431	     -0.08171174	      0.14361371	     -0.08171176	      0.14241091	     -0.08171176	      0.08809232
      0.84004506	     -2.23566427	    -23.62287484	     22.34394457	      6.51745510	     -0.08271381	      0.14408229	     -0.08271381	      0.07932386	     -0.08271381	      0.07432340	     -0.08271379	      0.14365880	     -0.08271381	      0.14242224	     -0.08271381	      0.08808146
      0.84782794	     -2.42036500	    -23.83094286	     22.39636737	      6.94635783	     -0.08371585	      0.14398940	     -0.08371585	      0.07934443	     -0.08371585	      0.07434401	     -0.08371584	      0.14370353	     -0.08371585	      0.14243302	     -0.08371585	      0.08806936
      0.85561082	     -2.60646816	    -23.98387575	     22.45196669	      7.33545344	     -0.08471790	      0.14389696	     -0.08471790	      0.07936642	     -0.08471790	      0.07436602	     -0.08471788	      0.14374730	     -0.08471790	      0.14244331	     -0.08471790	      0.08805697
      0.86339370	     -2.79354487	    -24.08052592	     22.51043421	      7.68164092	     -0.08571994	      0.14380505	     -0.08571994	      0.07938967	     -0.08571994	      0.07438927	     -0.08571993	      0.14379042	     -0.08571994	      0.14245317	     -0.08571994	      0.08804338
      0.87028978	     -2.95977157	    -24.12159372	     22.56438054	      7.95941100	     -0.08660781	      0.14372420	     -0.08660781	      0.07941123	     -0.08660781	      0.07441082	     -0.08660780	      0.14382800	     -0.08660781	      0.14246159	     -0.08660781	      0.08803130
      0.87718585	     -3.12613351	    -24.11960465	     22.62013702	      8.20614369	     -0.08749568	      0.14364399	     -0.08749568	      0.07943359	     -0.08749568	      0.07443316	     -0.08749567	      0.14386498	     -0.08749568	      0.14246974	     -0.08749568	      0.08801845
      0.88557267	     -3.32821855	    -24.06147203	     22.69009411	      8.47036118	     -0.08857549	      0.14354746	     -0.08857549	      0.07946174	     -0.08857549	      0.07446128	     -0.08857547	      0.14390910	     -0.08857549	      0.14247931	     -0.08857549	      0.08800257
      0.89395949	     -3.52955980	    -23.94184656	     22.76209859	      8.69302353	     -0.08965529	      0.14345223	     -0.08965529	      0.07949082	     -0.08965529	      0.07449030	     -0.08965527	      0.14395221	     -0.08965529	      0.14248856	     -0.08965529	      0.08798588
      0.90087937	     -3.69476270	    -23.79895427	     22.82281131	      8.85052603	     -0.09054622	      0.14337475	     -0.09054622	      0.07951541	     -0.09054622	      0.07451484	     -0.09054621	      0.14398697	     -0.09054622	      0.14249597	     -0.09054622	      0.08797218
      0.90779924	     -3.85883640	    -23.61537798	     22.88452245	      8.98109616	     -0.09143716	      0.14329837	     -0.09143716	      0.07954046	     -0.09143716	      0.07453983	     -0.09143714	      0.14402099	     -0.09143716	      0.14250317	     -0.09143716	      0.08795793
